<?xml version="1.0" encoding="UTF-8"?>
<svg version="1.1" xmlns="http://www.w3.org/2000/svg" width="476" height="97">
<path d="M0 0 C157.08 0 314.16 0 476 0 C476 32.01 476 64.02 476 97 C318.92 97 161.84 97 0 97 C0 64.99 0 32.98 0 0 Z " fill="#FCFCFC" transform="translate(0,0)"/>
<path d="M0 0 C3.96 0 7.92 0 12 0 C12 15.51 12 31.02 12 47 C8.37 47 4.74 47 1 47 C1 46.01 1 45.02 1 44 C0.34 44 -0.32 44 -1 44 C-1 44.66 -1 45.32 -1 46 C-4.16009533 47.05336511 -6.5553136 47.20032888 -9.875 47.25 C-11.41800781 47.28867188 -11.41800781 47.28867188 -12.9921875 47.328125 C-17.74298138 46.80985658 -20.84942702 44.48221224 -24 41 C-24.33 42.98 -24.66 44.96 -25 47 C-28.96 47 -32.92 47 -37 47 C-37 46.34 -37 45.68 -37 45 C-37.928125 45.495 -37.928125 45.495 -38.875 46 C-44.21816996 47.70981439 -49.65245339 47.62281849 -55.0625 46.1875 C-57 45 -57 45 -58 42 C-58.66 42 -59.32 42 -60 42 C-60 41.34 -60 40.68 -60 40 C-60.50789063 40.40992188 -61.01578125 40.81984375 -61.5390625 41.2421875 C-62.22742188 41.78101563 -62.91578125 42.31984375 -63.625 42.875 C-64.29789063 43.40867188 -64.97078125 43.94234375 -65.6640625 44.4921875 C-72.5106134 48.91153306 -80.12590288 48.74088879 -88 48 C-91.52496006 46.98910123 -94.74411629 45.68045611 -98 44 C-97.49287967 40.28111761 -96.88391785 37.26545761 -95 34 C-90.40425532 34.76595745 -90.40425532 34.76595745 -88.21875 36.03125 C-85.29424436 37.30814683 -82.92677633 37.19406035 -79.75 37.125 C-78.13351563 37.09792969 -78.13351563 37.09792969 -76.484375 37.0703125 C-75.66453125 37.04710937 -74.8446875 37.02390625 -74 37 C-74 35.68 -74 34.36 -74 33 C-74.64066406 32.81824219 -75.28132813 32.63648438 -75.94140625 32.44921875 C-91.61942141 27.89301464 -91.61942141 27.89301464 -97 22 C-98.37330282 17.78035446 -98.52630827 14.31577067 -96.875 10.1875 C-93.11117262 5.79636806 -88.97890589 2.46199124 -83.08447266 1.77758789 C-80.88598905 1.65962172 -78.70154047 1.62880232 -76.5 1.625 C-75.75363281 1.60050781 -75.00726563 1.57601563 -74.23828125 1.55078125 C-70.20180274 1.52934862 -68.42950675 1.71329317 -64.96875 4.0234375 C-63.99421875 5.00183594 -63.99421875 5.00183594 -63 6 C-63.69941596 9.14737182 -64.76078698 12.02588876 -66 15 C-66.7425 14.690625 -67.485 14.38125 -68.25 14.0625 C-73.44702225 12.59001036 -78.62487263 12.33050945 -84 12 C-84 13.98 -84 15.96 -84 18 C-83.14277344 18.18175781 -82.28554687 18.36351563 -81.40234375 18.55078125 C-66.08092486 21.91907514 -66.08092486 21.91907514 -61 27 C-61 22.38 -61 17.76 -61 13 C-52.50390625 12.90234375 -52.50390625 12.90234375 -50 13 C-49 14 -49 14 -48.88647461 16.13305664 C-48.89171143 17.04949951 -48.89694824 17.96594238 -48.90234375 18.91015625 C-48.90556641 19.89951172 -48.90878906 20.88886719 -48.91210938 21.90820312 C-48.92467773 23.46958008 -48.92467773 23.46958008 -48.9375 25.0625 C-48.94201172 26.10728516 -48.94652344 27.15207031 -48.95117188 28.22851562 C-48.96300087 30.8190666 -48.97948311 33.40950559 -49 36 C-43.67829506 36.29562367 -43.67829506 36.29562367 -39 34 C-38.49223956 31.78067723 -38.49223956 31.78067723 -38.48828125 29.2109375 C-38.45283203 28.26992188 -38.41738281 27.32890625 -38.38085938 26.359375 C-38.35830078 25.37453125 -38.33574219 24.3896875 -38.3125 23.375 C-38.27833984 22.38242187 -38.24417969 21.38984375 -38.20898438 20.3671875 C-38.12635318 17.91186053 -38.06150472 15.45594699 -38 13 C-33.71 13 -29.42 13 -25 13 C-24.505 16.465 -24.505 16.465 -24 20 C-23.46375 19.236875 -22.9275 18.47375 -22.375 17.6875 C-19.25867298 14.16112995 -16.5162203 12.28006626 -11.75390625 11.75 C-7.2544176 11.63178683 -5.17930975 11.91034513 -1 14 C-0.67 9.38 -0.34 4.76 0 0 Z " fill="#0C0C0C" transform="translate(186,18)"/>
<path d="M0 0 C3.63 0 7.26 0 11 0 C11 4.95 11 9.9 11 15 C12.134375 14.505 13.26875 14.01 14.4375 13.5 C18.99665827 11.82158421 23.18329049 11.05624546 28 12 C31.40946789 13.70109912 33.50907442 15.96156759 35.15234375 19.4375 C36.37947364 24.59483853 36.20952518 29.5954271 36.125 34.875 C36.11597656 35.94492187 36.10695313 37.01484375 36.09765625 38.1171875 C36.07419463 40.74488856 36.03832696 43.37247372 36 46 C32.04 46 28.08 46 24 46 C23.67 38.08 23.34 30.16 23 22 C16.36980013 21.35284977 16.36980013 21.35284977 13 24 C12.09166031 26.72501908 11.81640015 28.62233971 11.68359375 31.44921875 C11.64169922 32.29677734 11.59980469 33.14433594 11.55664062 34.01757812 C11.51732422 34.89865234 11.47800781 35.77972656 11.4375 36.6875 C11.37272461 38.02651367 11.37272461 38.02651367 11.30664062 39.39257812 C11.2006478 41.59487344 11.09982779 43.79741662 11 46 C7.04 46 3.08 46 -1 46 C-1 44.68 -1 43.36 -1 42 C-2.485 42.99 -2.485 42.99 -4 44 C-8.31093945 46.18255821 -12.43830436 46.38364276 -17.1875 46.375 C-17.87650391 46.37628906 -18.56550781 46.37757812 -19.27539062 46.37890625 C-23.26253863 46.29399119 -26.40872403 45.74333785 -30 44 C-30 44.66 -30 45.32 -30 46 C-33.96 46 -37.92 46 -42 46 C-42.03738281 44.43507812 -42.07476562 42.87015625 -42.11328125 41.2578125 C-42.17892377 39.213517 -42.24537168 37.16924725 -42.3125 35.125 C-42.33505859 34.09246094 -42.35761719 33.05992188 -42.38085938 31.99609375 C-42.41630859 31.00996094 -42.45175781 30.02382813 -42.48828125 29.0078125 C-42.51446533 28.09660645 -42.54064941 27.18540039 -42.56762695 26.24658203 C-42.71031006 25.50520996 -42.85299316 24.76383789 -43 24 C-45.837578 21.64985842 -45.837578 21.64985842 -49.125 22.3125 C-51.88086422 22.70644321 -51.88086422 22.70644321 -53 24 C-53.15714654 25.63256758 -53.25085414 27.27135338 -53.31640625 28.91015625 C-53.35830078 29.89951172 -53.40019531 30.88886719 -53.44335938 31.90820312 C-53.48267578 32.94912109 -53.52199219 33.99003906 -53.5625 35.0625 C-53.60568359 36.10728516 -53.64886719 37.15207031 -53.69335938 38.22851562 C-53.79981105 40.81883972 -53.90044308 43.40940175 -54 46 C-57.96 46 -61.92 46 -66 46 C-66 34.78 -66 23.56 -66 12 C-62.37 12 -58.74 12 -55 12 C-55 12.99 -55 13.98 -55 15 C-54.34 15 -53.68 15 -53 15 C-53 14.34 -53 13.68 -53 13 C-46.87852996 11.77570599 -41.48496005 11.09637816 -35.5625 13.25 C-33 15 -33 15 -32.125 17.1875 C-32.08375 17.785625 -32.0425 18.38375 -32 19 C-31.34 19 -30.68 19 -30 19 C-29.773125 18.401875 -29.54625 17.80375 -29.3125 17.1875 C-27.59287899 14.32146499 -25.99580435 13.46885698 -23 12 C-19.87890625 11.63671875 -19.87890625 11.63671875 -16.5625 11.6875 C-14.92474609 11.69330078 -14.92474609 11.69330078 -13.25390625 11.69921875 C-9.8991652 12.00932086 -7.14149973 12.81068411 -4 14 C-3.20046862 17.28696233 -2.90341064 18.71023192 -4 22 C-11.425 21.01 -11.425 21.01 -19 20 C-19 21.32 -19 22.64 -19 24 C-18.21496094 24.09796875 -17.42992187 24.1959375 -16.62109375 24.296875 C-15.57050781 24.44640625 -14.51992188 24.5959375 -13.4375 24.75 C-12.40496094 24.88921875 -11.37242187 25.0284375 -10.30859375 25.171875 C-7 26 -7 26 0 30 C0 20.1 0 10.2 0 0 Z " fill="#060606" transform="translate(337,19)"/>
<path d="M0 0 C3.63 0 7.26 0 11 0 C11 4.95 11 9.9 11 15 C11.99 15 12.98 15 14 15 C14 14.34 14 13.68 14 13 C17.06246747 11.21590198 19.22079273 10.77119979 22.75 10.875 C23.54921875 10.89304687 24.3484375 10.91109375 25.171875 10.9296875 C25.77515625 10.95289063 26.3784375 10.97609375 27 11 C27 10.01 27 9.02 27 8 C27.66 8 28.32 8 29 8 C28.45118943 14.35219042 27.83488387 20.67873638 27 27 C28.98 26.34 30.96 25.68 33 25 C33.10846163 30.20615812 32.65734931 34.74120549 32 40 C33.98 32.74 35.96 25.48 38 18 C36.68 18.33 35.36 18.66 34 19 C34.33 16.69 34.66 14.38 35 12 C38.87485635 11.91248587 42.74945643 11.85943565 46.625 11.8125 C48.26662109 11.77479492 48.26662109 11.77479492 49.94140625 11.73632812 C56.71122408 11.67478433 61.41854553 12.03603768 66.8125 16.5 C69.33144281 19.6818225 69.11732731 22.88652045 69.09765625 26.76171875 C69.09282227 28.43911133 69.09282227 28.43911133 69.08789062 30.15039062 C69.07532227 31.90125977 69.07532227 31.90125977 69.0625 33.6875 C69.05798828 34.86634766 69.05347656 36.04519531 69.04882812 37.25976562 C69.03703285 40.17319867 69.01909727 43.08660567 69 46 C65.37 46 61.74 46 58 46 C57.67 45.34 57.34 44.68 57 44 C56.41412109 44.73476562 56.41412109 44.73476562 55.81640625 45.484375 C53.39079524 47.50832569 52.07155329 47.33815902 48.9375 47.25 C47.88820312 47.22292969 46.83890625 47.19585937 45.7578125 47.16796875 C44.51773438 47.11253906 43.27765625 47.05710938 42 47 C41.23913086 46.9685791 40.47826172 46.9371582 39.69433594 46.90478516 C37.23315661 46.80039822 34.77286529 46.68452982 32.3125 46.5625 C31.50997803 46.52350586 30.70745605 46.48451172 29.88061523 46.44433594 C24.11926343 46.11926343 24.11926343 46.11926343 23 45 C22.91286169 43.29227642 22.89299993 41.58101351 22.90234375 39.87109375 C22.90556641 38.83662109 22.90878906 37.80214844 22.91210938 36.73632812 C22.92048828 35.64771484 22.92886719 34.55910156 22.9375 33.4375 C22.94201172 32.34501953 22.94652344 31.25253906 22.95117188 30.12695312 C22.9630016 27.41794568 22.98093769 24.7089662 23 22 C19.7 22.66 16.4 23.32 13 24 C12.67 31.26 12.34 38.52 12 46 C8.04 46 4.08 46 0 46 C0 30.82 0 15.64 0 0 Z " fill="#0D0D0D" transform="translate(200,19)"/>
<path d="M0 0 C3.96 0 7.92 0 12 0 C12.06058594 1.64871094 12.12117188 3.29742187 12.18359375 4.99609375 C12.26797937 7.143239 12.35262835 9.29037391 12.4375 11.4375 C12.47681641 12.52611328 12.51613281 13.61472656 12.55664062 14.73632812 C12.61948242 16.28803711 12.61948242 16.28803711 12.68359375 17.87109375 C12.72025146 18.82943115 12.75690918 19.78776855 12.79467773 20.77514648 C12.75834424 22.97138925 12.75834424 22.97138925 14 24 C16.9157691 24.41702122 16.9157691 24.41702122 20 24 C22.71937848 21.18522574 23.38800567 19.09422306 23.51171875 15.234375 C23.54716797 14.34492187 23.58261719 13.45546875 23.61914062 12.5390625 C23.64169922 11.61867188 23.66425781 10.69828125 23.6875 9.75 C23.72166016 8.81414063 23.75582031 7.87828125 23.79101562 6.9140625 C23.87331102 4.60979154 23.93833713 2.30491537 24 0 C27.96 0 31.92 0 36 0 C36 11.22 36 22.44 36 34 C32.04 34 28.08 34 24 34 C24 33.34 24 32.68 24 32 C23.17822266 32.48726562 23.17822266 32.48726562 22.33984375 32.984375 C19.58099057 34.18187388 17.56144096 34.26663768 14.5625 34.25 C13.63566406 34.25515625 12.70882813 34.2603125 11.75390625 34.265625 C8.79016143 33.97976025 6.65422575 33.33857326 4 32 C0.90490087 27.57842981 -0.12468803 24.68822959 -0.09765625 19.3359375 C-0.09443359 18.21445312 -0.09121094 17.09296875 -0.08789062 15.9375 C-0.07951172 14.761875 -0.07113281 13.58625 -0.0625 12.375 C-0.05798828 11.19164062 -0.05347656 10.00828125 -0.04882812 8.7890625 C-0.03701478 5.85935361 -0.0190789 2.92967059 0 0 Z " fill="#060606" transform="translate(374,31)"/>
<path d="M0 0 C3.63 0 7.26 0 11 0 C11 4.95 11 9.9 11 15 C11.99 15 12.98 15 14 15 C14 14.34 14 13.68 14 13 C17.06246747 11.21590198 19.22079273 10.77119979 22.75 10.875 C23.54921875 10.89304687 24.3484375 10.91109375 25.171875 10.9296875 C25.77515625 10.95289063 26.3784375 10.97609375 27 11 C27 10.01 27 9.02 27 8 C27.66 8 28.32 8 29 8 C28.45118943 14.35219042 27.83488387 20.67873638 27 27 C28.98 26.34 30.96 25.68 33 25 C33.12556054 31.40358744 33.12556054 31.40358744 32.5 34.375 C31.76339723 38.24216455 31.92304244 42.07516444 32 46 C25.84765625 46.09765625 25.84765625 46.09765625 24 46 C23 45 23 45 22.88647461 42.77514648 C22.89171143 41.81680908 22.89694824 40.85847168 22.90234375 39.87109375 C22.90556641 38.83662109 22.90878906 37.80214844 22.91210938 36.73632812 C22.92048828 35.64771484 22.92886719 34.55910156 22.9375 33.4375 C22.94201172 32.34501953 22.94652344 31.25253906 22.95117188 30.12695312 C22.9630016 27.41794568 22.98093769 24.7089662 23 22 C19.7 22.66 16.4 23.32 13 24 C12.67 31.26 12.34 38.52 12 46 C8.04 46 4.08 46 0 46 C0 30.82 0 15.64 0 0 Z " fill="#080808" transform="translate(200,19)"/>
<path d="M0 0 C3.63 0 7.26 0 11 0 C11 0.99 11 1.98 11 3 C11.66 3 12.32 3 13 3 C13 2.34 13 1.68 13 1 C19.06848493 -0.21369699 24.45699396 -0.84766868 30.375 1.125 C33.66128553 3.47234681 34.12796283 5.11547079 35 9 C35.25330078 9.88171875 35.25330078 9.88171875 35.51171875 10.78125 C36.3951944 14.79576334 36.45851647 18.90987512 36.71875 23.00390625 C36.89065623 26.04893268 36.89065623 26.04893268 38 29 C37.34 30.65 36.68 32.3 36 34 C32.04 34 28.08 34 24 34 C23.96261719 32.43507812 23.92523438 30.87015625 23.88671875 29.2578125 C23.82107623 27.213517 23.75462832 25.16924725 23.6875 23.125 C23.66494141 22.09246094 23.64238281 21.05992188 23.61914062 19.99609375 C23.58369141 19.00996094 23.54824219 18.02382813 23.51171875 17.0078125 C23.48553467 16.09660645 23.45935059 15.18540039 23.43237305 14.24658203 C23.28968994 13.50520996 23.14700684 12.76383789 23 12 C20.162422 9.64985842 20.162422 9.64985842 16.875 10.3125 C14.11913578 10.70644321 14.11913578 10.70644321 13 12 C12.84285346 13.63256758 12.74914586 15.27135338 12.68359375 16.91015625 C12.64169922 17.89951172 12.59980469 18.88886719 12.55664062 19.90820312 C12.51732422 20.94912109 12.47800781 21.99003906 12.4375 23.0625 C12.39431641 24.10728516 12.35113281 25.15207031 12.30664062 26.22851562 C12.20018895 28.81883972 12.09955692 31.40940175 12 34 C8.04 34 4.08 34 0 34 C0 22.78 0 11.56 0 0 Z " fill="#050505" transform="translate(271,31)"/>
<path d="M0 0 C1.63775391 0.00580078 1.63775391 0.00580078 3.30859375 0.01171875 C6.6633348 0.32182086 9.42100027 1.12318411 12.5625 2.3125 C13.36203138 5.59946233 13.65908936 7.02273192 12.5625 10.3125 C5.1375 9.3225 5.1375 9.3225 -2.4375 8.3125 C-2.4375 9.6325 -2.4375 10.9525 -2.4375 12.3125 C0.5325 12.8075 0.5325 12.8075 3.5625 13.3125 C3.2325 14.3025 2.9025 15.2925 2.5625 16.3125 C1.9025 16.3125 1.2425 16.3125 0.5625 16.3125 C0.5625 17.6325 0.5625 18.9525 0.5625 20.3125 C2.2125 20.9725 3.8625 21.6325 5.5625 22.3125 C5.5625 23.3025 5.5625 24.2925 5.5625 25.3125 C1.4122888 27.3876056 -3.86835066 26.40429828 -8.3125 25.6875 C-9.859375 25.501875 -9.859375 25.501875 -11.4375 25.3125 C-12.0975 25.9725 -12.7575 26.6325 -13.4375 27.3125 C-13.49808594 26.34828125 -13.55867188 25.3840625 -13.62109375 24.390625 C-13.70488281 23.12734375 -13.78867187 21.8640625 -13.875 20.5625 C-13.95621094 19.30953125 -14.03742188 18.0565625 -14.12109375 16.765625 C-14.31662115 13.47883533 -14.31662115 13.47883533 -15.07421875 11.05078125 C-15.4375 9.3125 -15.4375 9.3125 -13.8125 6.25 C-9.75409425 1.23039289 -6.40960038 -0.09814465 0 0 Z " fill="#0E0E0E" transform="translate(320.4375,30.6875)"/>
<path d="M0 0 C4.29 0 8.58 0 13 0 C13.495 6.93 13.495 6.93 14 14 C15.32 13.34 16.64 12.68 18 12 C20.359375 11.8046875 20.359375 11.8046875 22.75 11.875 C23.54921875 11.89304687 24.3484375 11.91109375 25.171875 11.9296875 C25.77515625 11.95289063 26.3784375 11.97609375 27 12 C27 12.33 27 12.66 27 13 C19.5 14.5 19.5 14.5 12 16 C12 11.05 12 6.1 12 1 C8.37 1 4.74 1 1 1 C1 10.9 1 20.8 1 31 C-0.65 30.34 -2.3 29.68 -4 29 C-6.43032486 28.26742683 -8.86841252 27.56025817 -11.3125 26.875 C-13.19388672 26.34519531 -13.19388672 26.34519531 -15.11328125 25.8046875 C-16.06589844 25.53914063 -17.01851563 25.27359375 -18 25 C-18 23.68 -18 22.36 -18 21 C-7.44191344 20.6309795 -7.44191344 20.6309795 -3 23 C-3 20.36 -3 17.72 -3 15 C-10.425 14.01 -10.425 14.01 -18 13 C-18 12.67 -18 12.34 -18 12 C-11.59646678 11.7638041 -6.15370839 12.176679 0 14 C0 9.38 0 4.76 0 0 Z " fill="#6A6A6A" transform="translate(336,18)"/>
<path d="M0 0 C0.33 1.32 0.66 2.64 1 4 C1.66 4 2.32 4 3 4 C3 8.62 3 13.24 3 18 C2.01 17.67 1.02 17.34 0 17 C0 16.34 0 15.68 0 15 C-6.60632156 12.8915995 -13.17576662 11.23416987 -20 10 C-21.125 5.25 -21.125 5.25 -20 3 C-7.33029613 2.6309795 -7.33029613 2.6309795 -2 5 C-1.34 3.35 -0.68 1.7 0 0 Z " fill="#E3E3E3" transform="translate(122,27)"/>
<path d="M0 0 C2.375 0.9375 2.375 0.9375 4 3 C4.81125617 7.37084955 4.78440626 10.80886456 2.3125 14.5625 C-0.4961393 16.30841091 -1.74745855 16.55531196 -5 16 C-7.8125 15.0625 -7.8125 15.0625 -10 13 C-10.94999341 8.67589208 -10.75586493 5.19194085 -8.375 1.4375 C-5.29645272 -0.42583125 -3.54522444 -0.5170119 0 0 Z " fill="#EDEDED" transform="translate(182,40)"/>
<path d="M0 0 C0.33 0 0.66 0 1 0 C1 3.96 1 7.92 1 12 C-1.62573061 11.35702496 -4.25057303 10.71075589 -6.875 10.0625 C-7.99455078 9.78889648 -7.99455078 9.78889648 -9.13671875 9.50976562 C-14.7734375 8.11328125 -14.7734375 8.11328125 -17 7 C-17 5.68 -17 4.36 -17 3 C-6.44191344 2.81548975 -6.44191344 2.81548975 -2 4 C-1.34 2.68 -0.68 1.36 0 0 Z " fill="#E1E1E1" transform="translate(335,36)"/>
<path d="M0 0 C0.66 0 1.32 0 2 0 C2 0.66 2 1.32 2 2 C10.415 3.485 10.415 3.485 19 5 C19 5.99 19 6.98 19 8 C14.8497888 10.0751056 9.56914934 9.09179828 5.125 8.375 C4.09375 8.25125 3.0625 8.1275 2 8 C1.34 8.66 0.68 9.32 0 10 C0 6.7 0 3.4 0 0 Z " fill="#E2E2E2" transform="translate(307,48)"/>
<path d="M0 0 C2 1.3125 2 1.3125 3 3 C3 3.99 3 4.98 3 6 C-1.62 6 -6.24 6 -11 6 C-11 4.35 -11 2.7 -11 1 C-7.2505911 -0.24980297 -3.92294754 -0.46585002 0 0 Z " fill="#D3D3D3" transform="translate(254,39)"/>
<path d="M0 0 C2.97 0 5.94 0 9 0 C9.1875 2.375 9.1875 2.375 9 5 C6 7 6 7 2.8125 6.625 C1.884375 6.41875 0.95625 6.2125 0 6 C-1.125 2.25 -1.125 2.25 0 0 Z " fill="#E4E4E4" transform="translate(248,51)"/>
<path d="M0 0 C6.63876808 -0.23616171 11.94290748 -0.02854626 18 3 C17.34 5.31 16.68 7.62 16 10 C15 8 15 8 15 3 C7.575 2.01 7.575 2.01 0 1 C0 0.67 0 0.34 0 0 Z " fill="#505050" transform="translate(318,30)"/>
<path d="M0 0 C0.66 0 1.32 0 2 0 C1.67 3.63 1.34 7.26 1 11 C0.67 11 0.34 11 0 11 C-0.33 9.02 -0.66 7.04 -1 5 C-3.64 4.67 -6.28 4.34 -9 4 C-9 3.67 -9 3.34 -9 3 C-6.03 3 -3.06 3 0 3 C0 2.01 0 1.02 0 0 Z " fill="#666666" transform="translate(227,27)"/>
<path d="M0 0 C3.81538462 2.46153846 3.81538462 2.46153846 4.75 5.1875 C4.8325 5.785625 4.915 6.38375 5 7 C3.35 7.33 1.7 7.66 0 8 C0 5.36 0 2.72 0 0 Z " fill="#E5E5E5" transform="translate(227,38)"/>
<path d="M0 0 C0.66 0 1.32 0 2 0 C1.8125 2.375 1.8125 2.375 1 5 C-1.5625 6.3125 -1.5625 6.3125 -4 7 C-2.92598892 4.08482708 -2.22189824 2.22189824 0 0 Z " fill="#323232" transform="translate(166,33)"/>
<path d="M0 0 C0.28875 0.61875 0.5775 1.2375 0.875 1.875 C1.93720042 4.13325765 1.93720042 4.13325765 4 6 C2.68 6.33 1.36 6.66 0 7 C-1.125 2.25 -1.125 2.25 0 0 Z " fill="#1E1E1E" transform="translate(237,42)"/>
</svg>
